<svg xmlns="http://www.w3.org/2000/svg" width="17" height="20" viewBox="0 0 17 20">
    <path fill="#FFF" fill-rule="nonzero" d="M9.434 19.944c3.92-.45 7.061-3.657 7.509-7.669.586-5.245-3.397-9.71-8.39-9.768V.154c0-.131-.16-.2-.268-.119L3.55 3.594a.151.151 0 0 0 0 .24l4.734 3.56c.108.08.267.007.267-.12V4.927c3.509.057 6.319 3.113 6.08 6.765-.204 3.142-2.707 5.691-5.776 5.892-3.254.212-6.02-2.166-6.515-5.312a1.187 1.187 0 0 0-1.165-1.009c-.715 0-1.273.65-1.162 1.373.695 4.482 4.738 7.844 9.42 7.309z"/>
</svg>
